<svg width="38" height="38" viewBox="0 0 38 38" fill="none" xmlns="http://www.w3.org/2000/svg">
<path d="M5.6932 17.2738C5.04936 17.2756 4.41919 17.4597 3.87558 17.8047C3.33198 18.1497 2.89717 18.6416 2.62145 19.2234C2.34573 19.8052 2.24037 20.4532 2.31757 21.0924C2.39476 21.7316 2.65135 22.3359 3.05764 22.8354L11.719 33.4455C12.0278 33.8289 12.4236 34.1332 12.8736 34.3329C13.3237 34.5327 13.8148 34.6222 14.3064 34.594C15.3577 34.5375 16.3068 33.9751 16.912 33.0504L34.9037 4.07474C34.9067 4.0699 34.9098 4.06511 34.9129 4.06039C35.0817 3.80119 35.027 3.28752 34.6785 2.96483C34.5828 2.87621 34.47 2.80813 34.3469 2.76478C34.2239 2.72142 34.0933 2.70371 33.9632 2.71274C33.833 2.72177 33.7061 2.75734 33.5903 2.81726C33.4744 2.87719 33.372 2.96019 33.2895 3.06118C33.283 3.06912 33.2764 3.07694 33.2695 3.08464L15.1246 23.5857C15.0555 23.6637 14.9717 23.7272 14.8779 23.7726C14.7841 23.8179 14.6822 23.8441 14.5782 23.8498C14.4742 23.8554 14.3701 23.8403 14.2719 23.8053C14.1738 23.7704 14.0836 23.7163 14.0065 23.6462L7.98455 18.1662C7.35911 17.5928 6.54166 17.2745 5.6932 17.2738Z" fill="#34C759"/>
</svg>
